<?xml version="1.0" encoding="UTF-8" standalone="no"?>
<!-- Created with Inkscape (http://www.inkscape.org/) -->

<svg
   xmlns:dc="http://purl.org/dc/elements/1.1/"
   xmlns:cc="http://creativecommons.org/ns#"
   xmlns:rdf="http://www.w3.org/1999/02/22-rdf-syntax-ns#"
   xmlns:svg="http://www.w3.org/2000/svg"
   xmlns="http://www.w3.org/2000/svg"
   version="1.1"
   width="256"
   height="256"
   viewBox="0 0 256 256"
   id="Layer_1"
   xml:space="preserve"><metadata
     id="metadata3017"><rdf:RDF><cc:Work
         rdf:about=""><dc:format>image/svg+xml</dc:format><dc:type
           rdf:resource="http://purl.org/dc/dcmitype/StillImage" /><dc:title></dc:title></cc:Work></rdf:RDF></metadata><defs
     id="defs3015" /><path
     d="m 169.71016,185.04928 c -4.15824,0 -8.3063,-1.69184 -11.32306,-5.01436 -7.73557,-8.54071 -18.75287,-13.42256 -30.23902,-13.42256 -11.67977,0 -22.41171,4.73917 -30.218616,13.35122 -5.666629,6.26795 -15.328435,6.74696 -21.596379,1.05994 -6.257752,-5.67682 -6.736766,-15.33862 -1.059945,-21.58618 13.473531,-14.8698 32.74619,-23.40032 52.87494,-23.40032 20.09819,0 39.37085,8.5509 52.88515,23.45128 5.67681,6.25775 5.19781,15.91956 -1.05995,21.59637 -2.91484,2.66007 -6.59408,3.96461 -10.26312,3.96461 z"
     id="path3005"
     style="fill:#FFC472" /><path
     d="m 203.6284,146.79954 c -3.90345,0 -7.8069,-1.48801 -10.7829,-4.45382 -17.30564,-17.21391 -40.27791,-26.69226 -64.69742,-26.69226 -24.47045,0 -47.452914,9.45797 -64.727979,26.63111 -5.982574,5.95201 -15.664763,5.92143 -21.616762,-0.0611 -5.952,-5.98257 -5.931616,-15.66476 0.06115,-21.61676 23.03342,-22.911111 53.680098,-35.528539 86.283591,-35.528539 32.55255,0 63.18904,12.637805 86.26323,35.589689 5.99276,5.952 6.01314,15.63419 0.0611,21.62696 -2.9862,2.98619 -6.92022,4.50477 -10.84406,4.50477 z"
     id="path3007"
     style="fill:#FFC472" /><path
     d="m 237.4753,108.61094 c -3.80154,0 -7.61326,-1.41666 -10.57907,-4.24997 -26.69227,-25.581365 -61.75198,-39.666402 -98.74815,-39.666402 -37.067491,0 -72.147594,14.064651 -98.76852,39.625632 -6.084491,5.83989 -15.766681,5.64624 -21.6167623,-0.44844 C 1.9127167,97.777086 2.1165523,88.094892 8.2010441,82.255007 40.54975,51.210844 83.141193,34.119231 128.14808,34.119231 c 44.91517,0 87.49642,17.111997 119.90629,48.166351 6.09468,5.839885 6.29851,15.522078 0.45863,21.616758 -3.00658,3.12887 -7.02214,4.7086 -11.0377,4.7086 z"
     id="path3009"
     style="fill:#bbbbbb" /><circle
     cx="13"
     cy="20"
     r="1.812"
     transform="matrix(10.191779,0,0,10.191779,-4.3450355,3.5438959)"
     id="circle3011"
     style="fill:#FFC472" /></svg>
